<?xml version="1.0" encoding="utf-8"?>
<!-- Generator: Adobe Illustrator 21.0.0, SVG Export Plug-In . SVG Version: 6.00 Build 0)  -->
<svg version="1.1" id="Layer_1" xmlns="http://www.w3.org/2000/svg" xmlns:xlink="http://www.w3.org/1999/xlink" x="0px" y="0px"
	 viewBox="0 0 128.8 96.6" style="enable-background:new 0 0 128.8 96.6;" xml:space="preserve">
<style type="text/css">
	.st0{fill:#231F20;}
</style>
<g>
	<path class="st0" d="M128.8,96.6H0V0h128.8V96.6z M4.1,92.5h120.6V4.1H4.1V92.5z"/>
	<g>
		<g>
			<g>
				<path class="st0" d="M54.3,14.5v3.3h-5.5v14.7h-3.5V17.7h-5.6v-3.3H54.3z"/>
				<path class="st0" d="M68.7,20c0.8,0.7,1.2,1.6,1.2,2.8V33h-3.4v-4.5c0-2.3,0-3.8-0.1-4.4c-0.1-0.6-0.2-1-0.6-1.2
					c-0.3-0.3-0.7-0.4-1.2-0.4c-0.6,0-1.1,0.2-1.8,0.6c-0.6,0.4-1.1,1-1.3,1.6c0,3.2,0,5.9,0.1,8.3H58C58,28.3,58,21.9,58,13.6
					l3.4-0.1l0,7.5c0.6-0.6,1.2-1.1,2-1.4c0.8-0.4,1.6-0.6,2.5-0.6C67,19,67.9,19.3,68.7,20z"/>
				<path class="st0" d="M83,21c1,1.3,1.4,3,1.4,5.1c0,0.4,0,0.7,0,0.9H76c0.1,1.2,0.5,2.1,1.1,2.6c0.7,0.5,1.6,0.8,2.7,0.8
					c0.6,0,1.1-0.1,1.6-0.3c0.5-0.2,1-0.5,1.5-0.8l0.9,2.1c-0.4,0.6-1,1.1-1.9,1.5c-0.9,0.4-1.8,0.6-2.9,0.6c-1.2,0-2.3-0.3-3.3-0.8
					c-1-0.5-1.8-1.3-2.4-2.4c-0.6-1-0.9-2.3-0.9-3.9s0.3-2.9,0.8-4c0.5-1.1,1.3-2,2.3-2.6c1-0.6,2-0.9,3.2-0.9
					C80.6,19,82,19.7,83,21z M80.4,22.5c-0.4-0.5-1-0.8-1.7-0.8c-0.8,0-1.4,0.3-1.9,0.8c-0.5,0.6-0.8,1.2-0.9,2H81
					C81,23.7,80.8,23.1,80.4,22.5z"/>
			</g>
		</g>
		<g>
			<g>
				<path class="st0" d="M45.2,53.7h9.7v3.5H41.7v-0.5h0V39.8h3.5V53.7z"/>
				<path class="st0" d="M67.8,45.4c1,1.3,1.4,3,1.4,5.1c0,0.4,0,0.7,0,0.9h-8.4c0.1,1.2,0.5,2.1,1.1,2.6c0.7,0.5,1.6,0.8,2.7,0.8
					c0.6,0,1.1-0.1,1.6-0.3c0.5-0.2,1-0.5,1.5-0.8l0.9,2.1c-0.4,0.6-1,1.1-1.9,1.5c-0.9,0.4-1.8,0.6-2.9,0.6c-1.2,0-2.3-0.3-3.3-0.8
					c-1-0.5-1.8-1.3-2.4-2.4c-0.6-1-0.9-2.3-0.9-3.9c0-1.5,0.3-2.9,0.8-4c0.5-1.1,1.3-2,2.3-2.6c1-0.6,2-0.9,3.2-0.9
					C65.4,43.5,66.9,44.1,67.8,45.4z M65.2,47c-0.4-0.5-1-0.8-1.7-0.8c-0.8,0-1.4,0.3-1.9,0.8c-0.5,0.6-0.8,1.2-0.9,2h5.1
					C65.9,48.2,65.7,47.5,65.2,47z"/>
				<path class="st0" d="M79.2,57.1c-0.3,0.2-0.8,0.4-1.3,0.5c-0.5,0.1-1.1,0.2-1.6,0.2c-2.5,0-3.7-1.2-3.7-3.5l0-8.1H71l0.1-2.7
					h1.5l0.2-4.3H76v4.3h2.6l-0.1,2.7h-2.6l-0.1,6.9c0,0.5,0.1,1,0.3,1.3c0.2,0.4,0.6,0.5,1.3,0.5c0.5,0,1-0.1,1.4-0.3L79.2,57.1z"
					/>
				<path class="st0" d="M88.7,57.1c-0.3,0.2-0.8,0.4-1.3,0.5c-0.5,0.1-1.1,0.2-1.6,0.2c-2.5,0-3.7-1.2-3.7-3.5l0-8.1h-1.6l0.1-2.7
					h1.5l0.2-4.3h3.1v4.3h2.6L88,46.3h-2.6l-0.1,6.9c0,0.5,0.1,1,0.3,1.3c0.2,0.4,0.6,0.5,1.3,0.5c0.5,0,1-0.1,1.4-0.3L88.7,57.1z"
					/>
				<path class="st0" d="M101.1,45.4c1,1.3,1.4,3,1.4,5.1c0,0.4,0,0.7,0,0.9h-8.4c0.1,1.2,0.5,2.1,1.1,2.6c0.7,0.5,1.6,0.8,2.7,0.8
					c0.6,0,1.1-0.1,1.6-0.3c0.5-0.2,1-0.5,1.5-0.8l0.9,2.1c-0.4,0.6-1,1.1-1.9,1.5c-0.9,0.4-1.8,0.6-2.9,0.6c-1.2,0-2.3-0.3-3.3-0.8
					c-1-0.5-1.8-1.3-2.4-2.4c-0.6-1-0.9-2.3-0.9-3.9c0-1.5,0.3-2.9,0.8-4c0.5-1.1,1.3-2,2.3-2.6c1-0.6,2-0.9,3.2-0.9
					C98.7,43.5,100.1,44.1,101.1,45.4z M98.5,47c-0.4-0.5-1-0.8-1.7-0.8c-0.8,0-1.4,0.3-1.9,0.8c-0.5,0.6-0.8,1.2-0.9,2h5.1
					C99.2,48.2,98.9,47.5,98.5,47z"/>
				<path class="st0" d="M112.4,43.5c0.5,0,1.1,0.1,1.6,0.3l-0.7,3.6c-0.7-0.2-1.2-0.3-1.7-0.3c-0.8,0-1.5,0.2-2,0.7
					c-0.5,0.5-0.9,1-1.1,1.6c0,2-0.1,3.5-0.1,4.4c0,1.3,0,2.5,0.1,3.6h-3.3l-0.1-13.8h3.4l-0.1,1.9C109.6,44.2,111,43.5,112.4,43.5z
					"/>
			</g>
		</g>
		<g>
			<g>
				<path class="st0" d="M53.6,64.2c1.1,1.2,1.7,2.8,1.7,4.6c0,1.3-0.3,2.5-1,3.5c-0.6,1-1.5,1.8-2.7,2.3c-1.1,0.5-2.4,0.8-3.9,0.8
					h-1.5v6.5h-3.2V62.4h4.6C50.6,62.4,52.5,63,53.6,64.2z M47.9,72c1.2,0,2.2-0.3,2.9-0.9c0.7-0.6,1.1-1.4,1.1-2.6
					c0-1.1-0.3-1.9-1-2.4c-0.7-0.5-1.5-0.8-2.3-0.8h-2.1V72H47.9z"/>
				<path class="st0" d="M64.9,68c0.5,0,1.1,0.1,1.6,0.3l-0.7,3.6c-0.6-0.2-1.2-0.3-1.7-0.3c-0.8,0-1.5,0.2-2,0.7
					c-0.5,0.5-0.9,1-1.1,1.6c0,2-0.1,3.5-0.1,4.4c0,1.3,0,2.5,0.1,3.6h-3.3l-0.1-13.8H61L60.9,70C62.1,68.7,63.4,68,64.9,68z"/>
				<path class="st0" d="M78.1,69.9c1,1.3,1.4,3,1.4,5.1c0,0.4,0,0.7,0,0.9H71c0.1,1.2,0.5,2.1,1.1,2.6c0.7,0.5,1.6,0.8,2.7,0.8
					c0.6,0,1.1-0.1,1.6-0.3c0.5-0.2,1-0.5,1.5-0.8l0.9,2.1c-0.4,0.6-1,1.1-1.9,1.5c-0.9,0.4-1.8,0.6-2.9,0.6c-1.2,0-2.3-0.3-3.3-0.8
					c-1-0.5-1.8-1.3-2.4-2.4c-0.6-1-0.9-2.3-0.9-3.9s0.3-2.9,0.8-4c0.5-1.1,1.3-2,2.3-2.6c1-0.6,2-0.9,3.2-0.9
					C75.7,67.9,77.1,68.6,78.1,69.9z M75.5,71.5c-0.4-0.5-1-0.8-1.7-0.8c-0.8,0-1.4,0.3-1.9,0.8c-0.5,0.6-0.8,1.2-0.9,2h5.1
					C76.1,72.7,75.9,72,75.5,71.5z"/>
				<path class="st0" d="M84.1,81.7c-0.9-0.4-1.9-0.9-3.1-1.6l1.5-2.7c0.6,0.5,1.3,1,2.1,1.3c0.8,0.4,1.7,0.5,2.7,0.5
					c0.5,0,0.9-0.1,1.3-0.3c0.4-0.2,0.6-0.5,0.6-0.9c0-0.2-0.1-0.5-0.2-0.7c-0.1-0.2-0.4-0.4-0.6-0.5c-0.5-0.3-1.2-0.5-2.1-0.8
					c-1.4-0.4-2.5-1-3.3-1.7c-0.7-0.7-1.1-1.5-1.1-2.5c0-1.3,0.5-2.3,1.4-3c0.9-0.7,2.1-1.1,3.6-1.1c1.1,0,2.2,0.2,3.1,0.5
					c0.9,0.3,1.7,0.8,2.3,1.4l-1.5,2.2c-0.5-0.4-1.1-0.7-1.8-0.9c-0.7-0.2-1.4-0.4-2-0.4c-0.6,0-1.1,0.1-1.4,0.3
					c-0.3,0.2-0.5,0.4-0.5,0.8c0,0.3,0.2,0.6,0.5,0.8c0.4,0.2,0.8,0.4,1.5,0.6c1.3,0.4,2.5,0.9,3.4,1.3c0.7,0.4,1.2,0.9,1.6,1.5
					c0.4,0.6,0.6,1.3,0.6,2.1c0,1.2-0.4,2.2-1.2,3c-0.8,0.8-2,1.2-3.7,1.2C86.2,82.2,85,82,84.1,81.7z"/>
				<path class="st0" d="M97.1,81.7c-0.9-0.4-1.9-0.9-3.1-1.6l1.5-2.7c0.6,0.5,1.3,1,2.1,1.3c0.8,0.4,1.7,0.5,2.7,0.5
					c0.5,0,0.9-0.1,1.3-0.3c0.4-0.2,0.6-0.5,0.6-0.9c0-0.2-0.1-0.5-0.2-0.7c-0.1-0.2-0.4-0.4-0.6-0.5c-0.5-0.3-1.2-0.5-2.1-0.8
					c-1.4-0.4-2.5-1-3.3-1.7c-0.7-0.7-1.1-1.5-1.1-2.5c0-1.3,0.5-2.3,1.4-3c0.9-0.7,2.1-1.1,3.6-1.1c1.1,0,2.2,0.2,3.1,0.5
					c0.9,0.3,1.7,0.8,2.3,1.4l-1.5,2.2c-0.5-0.4-1.1-0.7-1.8-0.9c-0.7-0.2-1.4-0.4-2-0.4c-0.6,0-1.1,0.1-1.4,0.3
					c-0.3,0.2-0.5,0.4-0.5,0.8c0,0.3,0.2,0.6,0.5,0.8c0.4,0.2,0.8,0.4,1.5,0.6c1.3,0.4,2.5,0.9,3.4,1.3c0.7,0.4,1.2,0.9,1.6,1.5
					c0.4,0.6,0.6,1.3,0.6,2.1c0,1.2-0.4,2.2-1.2,3c-0.8,0.8-2,1.2-3.7,1.2C99.1,82.2,98,82,97.1,81.7z"/>
				<path class="st0" d="M108.3,81.9c-0.4-0.4-0.7-1-0.7-1.6c0-0.6,0.2-1.2,0.7-1.6c0.4-0.4,1-0.7,1.6-0.7c0.6,0,1.2,0.2,1.6,0.7
					c0.4,0.4,0.7,1,0.7,1.6c0,0.6-0.2,1.2-0.7,1.6c-0.4,0.4-1,0.7-1.6,0.7C109.3,82.6,108.7,82.4,108.3,81.9z"/>
			</g>
		</g>
	</g>
</g>
</svg>
