<?xml version="1.0" encoding="utf-8"?>
<!-- Generator: Adobe Illustrator 21.0.0, SVG Export Plug-In . SVG Version: 6.00 Build 0)  -->
<svg version="1.1" id="Layer_1" xmlns="http://www.w3.org/2000/svg" xmlns:xlink="http://www.w3.org/1999/xlink" x="0px" y="0px"
	 viewBox="0 0 96.6 128.8" style="enable-background:new 0 0 96.6 128.8;" xml:space="preserve">
<style type="text/css">
	.st0{fill:#FFFFFF;}
</style>
<g>
	<path class="st0" d="M0,128.8V0h96.6v128.8H0z M4.1,4.1v120.6h88.4V4.1H4.1z"/>
	<g>
		<g>
			<g>
				<path class="st0" d="M25.7,45v3.3h-5.5V63h-3.5V48.2h-5.6v-3.3L25.7,45L25.7,45z"/>
				<path class="st0" d="M40.1,50.5c0.8,0.7,1.2,1.6,1.2,2.8v10.2h-3.4V59c0-2.3,0-3.8-0.1-4.4c-0.1-0.6-0.2-1-0.6-1.2
					C36.9,53.1,36.5,53,36,53c-0.6,0-1.1,0.2-1.8,0.6c-0.6,0.4-1.1,1-1.3,1.6c0,3.2,0,5.9,0.1,8.3h-3.6c0-4.7,0-11.1,0-19.4l3.4-0.1
					v7.5c0.6-0.6,1.2-1.1,2-1.4c0.8-0.4,1.6-0.6,2.5-0.6C38.4,49.5,39.3,49.8,40.1,50.5z"/>
				<path class="st0" d="M54.4,51.5c1,1.3,1.4,3,1.4,5.1c0,0.4,0,0.7,0,0.9h-8.4c0.1,1.2,0.5,2.1,1.1,2.6c0.7,0.5,1.6,0.8,2.7,0.8
					c0.6,0,1.1-0.1,1.6-0.3s1-0.5,1.5-0.8l0.9,2.1c-0.4,0.6-1,1.1-1.9,1.5S51.5,64,50.4,64c-1.2,0-2.3-0.3-3.3-0.8s-1.8-1.3-2.4-2.4
					c-0.6-1-0.9-2.3-0.9-3.9s0.3-2.9,0.8-4s1.3-2,2.3-2.6s2-0.9,3.2-0.9C52,49.5,53.4,50.2,54.4,51.5z M51.8,53
					c-0.4-0.5-1-0.8-1.7-0.8c-0.8,0-1.4,0.3-1.9,0.8c-0.5,0.6-0.8,1.2-0.9,2h5.1C52.4,54.2,52.3,53.6,51.8,53z"/>
			</g>
		</g>
		<g>
			<g>
				<path class="st0" d="M16.6,84.2h9.7v3.5H13.1v-0.5l0,0V70.3h3.5V84.2z"/>
				<path class="st0" d="M39.3,75.9c1,1.3,1.4,3,1.4,5.1c0,0.4,0,0.7,0,0.9h-8.4c0.1,1.2,0.5,2.1,1.1,2.6c0.7,0.5,1.6,0.8,2.7,0.8
					c0.6,0,1.1-0.1,1.6-0.3s1-0.5,1.5-0.8l0.9,2.1c-0.4,0.6-1,1.1-1.9,1.5s-1.8,0.6-2.9,0.6c-1.2,0-2.3-0.3-3.3-0.8
					s-1.8-1.3-2.4-2.4c-0.6-1-0.9-2.3-0.9-3.9c0-1.5,0.3-2.9,0.8-4s1.3-2,2.3-2.6s2-0.9,3.2-0.9C36.8,74,38.3,74.6,39.3,75.9z
					 M36.6,77.5c-0.4-0.5-1-0.8-1.7-0.8c-0.8,0-1.4,0.3-1.9,0.8c-0.5,0.6-0.8,1.2-0.9,2h5.1C37.3,78.7,37.1,78,36.6,77.5z"/>
				<path class="st0" d="M50.6,87.6c-0.3,0.2-0.8,0.4-1.3,0.5s-1.1,0.2-1.6,0.2c-2.5,0-3.7-1.2-3.7-3.5v-8.1h-1.6l0.1-2.7H44
					l0.2-4.3h3.2V74H50l-0.1,2.7h-2.6l-0.1,6.9c0,0.5,0.1,1,0.3,1.3c0.2,0.4,0.6,0.5,1.3,0.5c0.5,0,1-0.1,1.4-0.3L50.6,87.6z"/>
				<path class="st0" d="M60.1,87.6c-0.3,0.2-0.8,0.4-1.3,0.5s-1.1,0.2-1.6,0.2c-2.5,0-3.7-1.2-3.7-3.5v-8.1h-1.6L52,74h1.5l0.2-4.3
					h3.1V74h2.6v2.8h-2.6l-0.1,6.9c0,0.5,0.1,1,0.3,1.3c0.2,0.4,0.6,0.5,1.3,0.5c0.5,0,1-0.1,1.4-0.3L60.1,87.6z"/>
				<path class="st0" d="M72.5,75.9c1,1.3,1.4,3,1.4,5.1c0,0.4,0,0.7,0,0.9h-8.4c0.1,1.2,0.5,2.1,1.1,2.6c0.7,0.5,1.6,0.8,2.7,0.8
					c0.6,0,1.1-0.1,1.6-0.3s1-0.5,1.5-0.8l0.9,2.1c-0.4,0.6-1,1.1-1.9,1.5s-1.8,0.6-2.9,0.6c-1.2,0-2.3-0.3-3.3-0.8
					s-1.8-1.3-2.4-2.4c-0.6-1-0.9-2.3-0.9-3.9c0-1.5,0.3-2.9,0.8-4s1.3-2,2.3-2.6s2-0.9,3.2-0.9C70.1,74,71.5,74.6,72.5,75.9z
					 M69.9,77.5c-0.4-0.5-1-0.8-1.7-0.8c-0.8,0-1.4,0.3-1.9,0.8c-0.5,0.6-0.8,1.2-0.9,2h5.1C70.6,78.7,70.3,78,69.9,77.5z"/>
				<path class="st0" d="M83.8,74c0.5,0,1.1,0.1,1.6,0.3l-0.7,3.6c-0.7-0.2-1.2-0.3-1.7-0.3c-0.8,0-1.5,0.2-2,0.7s-0.9,1-1.1,1.6
					c0,2-0.1,3.5-0.1,4.4c0,1.3,0,2.5,0.1,3.6h-3.3l-0.1-13.8H80L79.9,76C81,74.7,82.4,74,83.8,74z"/>
			</g>
		</g>
		<g>
			<g>
				<path class="st0" d="M25,94.7c1.1,1.2,1.7,2.8,1.7,4.6c0,1.3-0.3,2.5-1,3.5c-0.6,1-1.5,1.8-2.7,2.3c-1.1,0.5-2.4,0.8-3.9,0.8
					h-1.5v6.5h-3.2V92.9H19C22,92.9,23.9,93.5,25,94.7z M19.4,102.5c1.2,0,2.2-0.3,2.9-0.9s1.1-1.4,1.1-2.6c0-1.1-0.3-1.9-1-2.4
					s-1.5-0.8-2.3-0.8H18v6.7C18,102.5,19.4,102.5,19.4,102.5z"/>
				<path class="st0" d="M36.3,98.5c0.5,0,1.1,0.1,1.6,0.3l-0.7,3.6c-0.6-0.2-1.2-0.3-1.7-0.3c-0.8,0-1.5,0.2-2,0.7s-0.9,1-1.1,1.6
					c0,2-0.1,3.5-0.1,4.4c0,1.3,0,2.5,0.1,3.6h-3.3L29,98.6h3.4l-0.1,1.9C33.5,99.2,34.8,98.5,36.3,98.5z"/>
				<path class="st0" d="M49.5,100.4c1,1.3,1.4,3,1.4,5.1c0,0.4,0,0.7,0,0.9h-8.5c0.1,1.2,0.5,2.1,1.1,2.6c0.7,0.5,1.6,0.8,2.7,0.8
					c0.6,0,1.1-0.1,1.6-0.3c0.5-0.2,1-0.5,1.5-0.8l0.9,2.1c-0.4,0.6-1,1.1-1.9,1.5s-1.8,0.6-2.9,0.6c-1.2,0-2.3-0.3-3.3-0.8
					s-1.8-1.3-2.4-2.4c-0.6-1-0.9-2.3-0.9-3.9s0.3-2.9,0.8-4s1.3-2,2.3-2.6s2-0.9,3.2-0.9C47.1,98.4,48.5,99.1,49.5,100.4z
					 M46.9,102c-0.4-0.5-1-0.8-1.7-0.8c-0.8,0-1.4,0.3-1.9,0.8c-0.5,0.6-0.8,1.2-0.9,2h5.1C47.5,103.2,47.3,102.5,46.9,102z"/>
				<path class="st0" d="M55.5,112.2c-0.9-0.4-1.9-0.9-3.1-1.6l1.5-2.7c0.6,0.5,1.3,1,2.1,1.3c0.8,0.4,1.7,0.5,2.7,0.5
					c0.5,0,0.9-0.1,1.3-0.3c0.4-0.2,0.6-0.5,0.6-0.9c0-0.2-0.1-0.5-0.2-0.7s-0.4-0.4-0.6-0.5c-0.5-0.3-1.2-0.5-2.1-0.8
					c-1.4-0.4-2.5-1-3.3-1.7c-0.7-0.7-1.1-1.5-1.1-2.5c0-1.3,0.5-2.3,1.4-3s2.1-1.1,3.6-1.1c1.1,0,2.2,0.2,3.1,0.5s1.7,0.8,2.3,1.4
					l-1.5,2.2c-0.5-0.4-1.1-0.7-1.8-0.9c-0.7-0.2-1.4-0.4-2-0.4s-1.1,0.1-1.4,0.3c-0.3,0.2-0.5,0.4-0.5,0.8c0,0.3,0.2,0.6,0.5,0.8
					c0.4,0.2,0.8,0.4,1.5,0.6c1.3,0.4,2.5,0.9,3.4,1.3c0.7,0.4,1.2,0.9,1.6,1.5s0.6,1.3,0.6,2.1c0,1.2-0.4,2.2-1.2,3s-2,1.2-3.7,1.2
					C57.6,112.7,56.4,112.5,55.5,112.2z"/>
				<path class="st0" d="M68.5,112.2c-0.9-0.4-1.9-0.9-3.1-1.6l1.5-2.7c0.6,0.5,1.3,1,2.1,1.3c0.8,0.4,1.7,0.5,2.7,0.5
					c0.5,0,0.9-0.1,1.3-0.3c0.4-0.2,0.6-0.5,0.6-0.9c0-0.2-0.1-0.5-0.2-0.7s-0.4-0.4-0.6-0.5c-0.5-0.3-1.2-0.5-2.1-0.8
					c-1.4-0.4-2.5-1-3.3-1.7c-0.7-0.7-1.1-1.5-1.1-2.5c0-1.3,0.5-2.3,1.4-3s2.1-1.1,3.6-1.1c1.1,0,2.2,0.2,3.1,0.5s1.7,0.8,2.3,1.4
					l-1.5,2.2c-0.5-0.4-1.1-0.7-1.8-0.9c-0.7-0.2-1.4-0.4-2-0.4s-1.1,0.1-1.4,0.3c-0.3,0.2-0.5,0.4-0.5,0.8c0,0.3,0.2,0.6,0.5,0.8
					c0.4,0.2,0.8,0.4,1.5,0.6c1.3,0.4,2.5,0.9,3.4,1.3c0.7,0.4,1.2,0.9,1.6,1.5s0.6,1.3,0.6,2.1c0,1.2-0.4,2.2-1.2,3
					c-0.8,0.8-2,1.2-3.7,1.2C70.5,112.7,69.4,112.5,68.5,112.2z"/>
				<path class="st0" d="M79.8,112.4c-0.4-0.4-0.7-1-0.7-1.6s0.2-1.2,0.7-1.6c0.4-0.4,1-0.7,1.6-0.7s1.2,0.2,1.6,0.7
					c0.4,0.4,0.7,1,0.7,1.6s-0.2,1.2-0.7,1.6c-0.4,0.4-1,0.7-1.6,0.7S80.1,112.9,79.8,112.4z"/>
			</g>
		</g>
	</g>
</g>
<text transform="matrix(1 0 0 1 420.9448 297.6378)" style="font-family:'MyriadPro-Regular'; font-size:12px;">#hero</text>
</svg>
